<?xml version="1.0" encoding="UTF-8"?>
<svg id="Layer_2" data-name="Layer 2" xmlns="http://www.w3.org/2000/svg" viewBox="0 0 610.6 206.15">
  <defs>
    <style>
      .cls-1 {
        fill: #e42125;
        stroke-width: 0px;
      }
    </style>
  </defs>
  <g id="Layer_1-2" data-name="Layer 1">
    <g>
      <path class="cls-1" d="M547.73,128.36c4.52-5.35,6.32-12.11,9.3-18.25,1.53-3.14,3.42-6.2,4.38-11.16-5.84,5.49-9.82,11.06-16.07,13.87-2.67,1.2-5.12,2.85-8.14,3.27-11.3,1.58-18.36-6.94-14.74-17.94.43-1.31.88-2.48.14-4.32-5.19,4.94-10.15,9.82-15.27,14.53-7.3,6.71-15.67,11.37-25.55,13.11-10.06,1.77-22.06-4.98-22.71-15.96-.07-1.13-.1-2.32-1.04-3.24-5.07,4.92-10.02,9.91-15.19,14.65-3.88,3.55-8.27,6.49-13.63,7.16-8.38,1.05-14.05-5.35-12.96-13.78,1.24-9.6,5.8-17.79,10.09-26.14,2.09-4.08,4.24-8.13,6.39-12.18.82-1.55,1.51-3.55.24-4.61-1.53-1.28-2.82.57-4.05,1.61-16.33,13.92-28.39,31.03-37.5,50.33-3.4,7.2-5.34,8.19-12.85,5.82-.32-.1-.61-.26-.93-.37q-9.28-3.11-4.6-12.27c1.55-3.06,2.98-6.19,4.39-9.32.16-.35-.18-.92-.55-2.48-4.51,6.68-10.65,10.65-15.81,15.75-6.52,6.46-14.49,10.97-23.4,13.93-11.34,3.76-21.29,1.51-28.12-7.85-3.52-4.82-4.5-10.75-3.29-16.52,3.29-15.69,11.31-28.86,22.35-40.34,7.81-8.12,16.9-13.98,27.9-16.75,8.1-2.04,19.87.93,22.05,12.23.84,4.37-.34,8.46-2.12,12.04-7.97,16-21.4,24.97-38.59,28.74-2.25.49-4.42,1.35-6.67,1.8-1.94.39-1.65,1.77-1.69,3.06-.32,8.74,7.43,11.5,15.91,8.28,16.14-6.13,27.88-18.17,38.4-31.38,7.94-9.97,12.67-21.72,17.72-33.28,2.62-5.99,3.98-6.56,10.26-4.69,2.7.8,5.4,1.61,8.14,2.29,3.44.85,4.41,2.42,2.36,5.69-2.71,4.32-5.1,8.83-7.65,13.25-.59,1.03-1.17,2.03-.57,3.69,3.7-3.7,7.37-7.19,10.85-10.86,5.59-5.88,11.81-10.88,19.06-14.59,6.17-3.15,14.98-1.32,16.84,3.92,1.74,4.92-.36,9.44-2.65,13.72-5.84,10.97-11.7,21.93-17.72,32.8-.68,1.22-.89,2.43-1.34,3.65-.58,1.59-2.47,3.33-.04,4.7,1.99,1.11,3.74,0,5.35-1.43,8.44-7.5,15.87-15.55,20.81-26.1,8.38-17.91,21.33-31.66,40.74-37.75,7.89-2.48,18.29-1.47,22.06,7.14,2.18,4.99,1.44,9.85-.53,14.86-1.94,4.93-4.72,9.06-8.95,12.15-2.48,1.81-5.53,2.06-7.85.14-2.48-2.06-1.42-4.66.17-7.13,1.95-3.04,3.43-6.37,5.34-9.43,1.27-2.04,1.87-4.44.28-5.88-1.51-1.36-4.04-.93-6.08.23-4.74,2.69-9.21,5.79-12.73,9.94-6.97,8.21-12.45,17.36-15.74,27.66-1.16,3.64-1.36,7.69-.01,11.28,1.87,5,8.71,6.46,15.08,3.33,15.74-7.72,27.63-19.6,36.51-34.6,5.77-9.75,11.14-19.71,16.13-29.88.98-2,2.36-3.11,5.07-2.89,5.14.43,9.57,2.7,13.99,4.83,3.62,1.74.74,4.43-.34,6.13-6.52,10.27-12.4,20.91-18.15,31.61-2.16,4.02-4.85,7.93-5.24,12.72-.14,1.75-1.09,4.03.98,4.91,1.77.75,3.92.26,5.54-1.24,2.29-2.12,4.79-4.05,6.88-6.35,13.28-14.64,22.67-31.74,30.85-49.55,1.59-3.46,3.58-5.35,7.58-4.31,3.05.79,6.16,1.31,9.22,2.03,5.08,1.18,5.61,2.25,3.2,6.77-13.42,25.23-25.17,51.27-37.89,76.85-6.79,13.66-13.48,27.48-24.49,38.46-6.02,6.01-12.46,11.46-21.62,11.71-6.1.16-9.76-3.54-9.91-9.68-.17-6.88,2.9-12.62,6.89-17.65,5.89-7.42,12.95-13.64,21.74-17.66,2.7-1.23,3.31-.61,2.59,2.07-3.97,3.43-8.05,6.74-11.89,10.32-4.75,4.42-8.45,9.55-10.2,15.98-.57,2.07-.12,3.94,1.11,5.04,1.56,1.4,2.93-.52,4.07-1.49,9.05-7.66,13.8-18.07,18.11-28.74ZM365.39,64.55c-.07-4.22-2.29-5.67-6.16-3.91-1.48.67-2.91,1.53-4.2,2.51-9.48,7.17-16.16,16.54-21.06,27.25-.31.68-.41,1.76-.08,2.35.63,1.1,1.76.44,2.67.18,10.92-3.15,18.74-10.37,25.02-19.45,1.84-2.65,4.01-5.33,3.81-8.93Z"/>
      <path class="cls-1" d="M68.95,103.42c-4.98,6.31-7.64,13.2-11.09,19.61-8.71,16.2-17.41,32.4-25.94,48.69-2.5,4.78-6.08,6.64-11.29,5.95-6.07-.81-12.1-1.85-17.82-4.05-2.3-.88-4.11-1.92-1.59-5.35,10.87-14.8,21.16-30.04,30.09-46.11,13.45-24.22,26.73-48.54,39.75-72.99,1.16-2.17,4.53-5.48,2.24-7.4-2.32-1.95-5.1,1.72-7.48,3.12-11.57,6.81-22.55,14.63-34.94,20.01-2.12.92-4.54,2.63-6.38.94-1.63-1.5.26-4.01.37-6.05.54-10.37,9.79-11.69,16.23-15.27,13.36-7.42,26.39-15.34,39.26-23.54,9.05-5.76,18.36-6.55,28.44-3.42,3.61,1.12,3.68,3.01,2.21,5.5-10.12,17.23-18.93,35.15-28.17,52.84-.71,1.35-1.89,2.87-.61,3.99,1.15,1,2.33-.57,3.35-1.35,12.84-9.7,25.04-20.15,36.68-31.26,12.15-11.6,23.81-23.67,33.91-37.14,1.96-2.61,3.72-5.39,5.39-8.2,1.36-2.29,2.68-2.62,4.65-.69,2.93,2.88,6.16,5.47,8.92,8.5,4.49,4.93,4,11.38-1,16.86-12.62,13.83-27.01,25.69-41.85,36.97-10.86,8.25-22.09,16.01-33.18,23.96-1.2.86-2.43,1.97-3.78,2.24-3.55.71-2.74,2.43-1.53,4.62,7.99,14.39,16.32,28.54,27.26,40.98,4.58,5.21,9.5,9.93,15.76,13.05,3.4,1.69,3.84,3.65.22,5.33-8.46,3.93-16.8,8.09-26.78,6.38-5.43-.93-9.28-3.81-12.77-7.53-10.62-11.32-17.13-25.15-23.59-39.01-1.5-3.22-3.1-6.4-4.94-10.19Z"/>
      <path class="cls-1" d="M249.35,150.28c-1.4,3.54-4.5,5.16-7.15,7.24-4.83,3.78-8.89,8.22-11.51,13.85-.07.15-.19.28-.25.43-1.05,2.66-2.19,6.24.06,7.79,2.58,1.78,4.73-1.61,6.26-3.5,8.02-9.9,13.7-21.18,18.67-32.85,1.67-3.93,3.46-7.81,5.23-11.7.82-1.8,1.62-3.58.59-6.06-3.54,2.9-6.64,6.09-10.33,8.31-6.73,4.04-13.42,8.17-22.12,4.41-6.32-2.73-6.79-8.32-8.6-13.44-.41-1.15.4-2.99-1.43-3.28-1.35-.21-2.25.96-3.19,1.97-6.49,7.02-12.79,14.19-21.4,18.91-8.83,4.84-17.66.07-18.04-10.07-.05-1.43.82-3.44-.7-4.14-1.96-.9-2.67,1.47-3.63,2.55-4.49,5.07-9.52,9.46-15.26,13.05-6.83,4.28-16.9,3.98-22.57-1.81-3.94-4.03-4.19-9.99-3.45-15.4,2.8-20.72,13.63-37.02,28.8-50.73,5.92-5.35,12.67-9.48,20.57-11.17,7.07-1.51,13.47-.28,17.95,6.07,1.04,1.48,2.57,1.9,2.98.38,2.04-7.44,7.62-5.43,12.48-4.86,10.49,1.21,11.25,2.44,6.23,11.23-6.76,11.84-12.44,24.22-18.61,36.35-.95,1.86-1.15,3.78-1.69,5.68-.38,1.34-2.06,2.82-.59,4.02,1.6,1.3,3.48.46,4.98-.79,8.35-6.98,16.59-14.09,22.01-23.78,9.39-16.76,20.34-32.14,38.95-39.59,7.49-3,15.67-3.94,22.04,3.06,2.73,3,3.99.61,4.56-1.11,1.34-4.1,4.21-4.15,7.54-3.78,3.95.44,7.81,1.14,11.67,2.26,3.18.92,3.1,1.75,1.76,4.36-6.81,13.3-13.81,26.52-19.94,40.13-7.21,16.01-14.8,31.83-22.66,47.51-6.6,13.19-14,26.03-26.53,34.76-4.07,2.83-8.34,5.37-13.64,5.18-5.64-.2-7.85-2.22-8.22-7.77-.96-14.35,8.09-22.67,18.45-29.93,2.7-1.89,5.32-5.19,9.74-3.75ZM153.83,121.38c.14,2.14.29,3.49,1.48,4.71,3.32,3.41,6.12.35,8.26-1.15,13.02-9.07,20.59-22.53,27.7-36.17,1.36-2.61,4.49-6.12.61-9.4-3.92-3.32-7.44-.07-10.29,1.61-9.96,5.84-16.8,14.69-21.9,24.96-2.55,5.15-4.72,10.41-5.87,15.43ZM243.65,113.44c.04,5.98,3.22,7.99,7.55,5.76,1.3-.67,2.6-1.45,3.7-2.41,12.26-10.79,21.09-24.04,27.73-38.86,1.51-3.37-.38-5.09-3.13-5.8-2.18-.56-4.49-.3-6.77.7-9.65,4.27-15.41,12.45-20.78,20.86-4.05,6.34-7.68,13.02-8.3,19.76ZM262.93,124.73c.11-.09.29-.18.3-.28.01-.1-.15-.23-.24-.34-.11.14-.23.29-.34.43.09.06.18.12.27.19Z"/>
      <path class="cls-1" d="M223.28,153.81c3.03.57,6.8-1.4,8.12,1.16.91,1.76-3.09,3.29-4.37,5.4-.51.84-1.64,1.39-1.92,2.26-3.42,10.64-12.77,9.93-21.15,11.34-13.21,2.22-26.39,4.58-39.55,7.11-11,2.12-22,4.36-32.9,6.94-14.88,3.52-29.71,7.26-43.99,12.85-3.79,1.48-7.51,3.15-11.32,4.57-5.66,2.11-10.71-1.02-15.89-2.27-8.79-2.13-17.44-4.85-26.19-7.2-1.49-.4-3.25-.52-3.58-2.13-.36-1.77,1.63-1.7,2.7-2.29,8.4-4.69,17.77-6.64,26.82-9.42,12.62-3.88,25.51-6.75,38.41-9.45,11.97-2.5,24.01-4.7,36.08-6.67,16.33-2.67,32.72-4.97,49.08-7.47,4.93-.75,9.91-.83,14.85-1.65,8.32-1.38,16.74-2.11,24.78-3.07Z"/>
      <path class="cls-1" d="M280.87,163.82c-3.31.26-6.62.55-9.93.78-2.7.19-4.56-.08-2.44-3.5,1.45-2.34,2.54-4.94,3.55-7.51,1.4-3.55,4.09-4.91,7.65-5.13,7.95-.49,15.89-1.38,23.83-1.81,22.9-1.24,45.82-2.31,68.73-3.38,39.41-1.85,78.79-1.47,118.19-.51,4.8.12,9.59.76,14.38,1.24,1.78.18,4.62-.7,4.25,2.55-.28,2.43-1.31,4.97-4.36,5.22-2.81.23-5.65.21-8.48.16-28.28-.49-56.5,1.74-84.76,2.32-23.08.47-46.15,2.26-69.18,4.01-20.5,1.56-40.95,3.88-61.42,5.86,0-.1-.02-.2-.03-.3Z"/>
    </g>
  </g>
</svg>