<?xml version="1.0" encoding="UTF-8"?>
<svg id="Layer_2" data-name="Layer 2" xmlns="http://www.w3.org/2000/svg" viewBox="0 0 178.2 177.81">
  <defs>
    <style>
      .cls-1 {
        fill: #e42125;
        stroke-width: 0px;
      }
    </style>
  </defs>
  <g id="Layer_1-2" data-name="Layer 1">
    <path class="cls-1" d="M68.95,103.42c-4.98,6.31-7.64,13.2-11.09,19.61-8.71,16.2-17.41,32.4-25.94,48.69-2.5,4.78-6.08,6.64-11.29,5.95-6.07-.81-12.1-1.85-17.82-4.05-2.3-.88-4.11-1.92-1.59-5.35,10.87-14.8,21.16-30.04,30.09-46.11,13.45-24.22,26.73-48.54,39.75-72.99,1.16-2.17,4.53-5.48,2.24-7.4-2.32-1.95-5.1,1.72-7.48,3.12-11.57,6.81-22.55,14.63-34.94,20.01-2.12.92-4.54,2.63-6.38.94-1.63-1.5.26-4.01.37-6.05.54-10.37,9.79-11.69,16.23-15.27,13.36-7.42,26.39-15.34,39.26-23.54,9.05-5.76,18.36-6.55,28.44-3.42,3.61,1.12,3.68,3.01,2.21,5.5-10.12,17.23-18.93,35.15-28.17,52.84-.71,1.35-1.89,2.87-.61,3.99,1.15,1,2.33-.57,3.35-1.35,12.84-9.7,25.04-20.15,36.68-31.26,12.15-11.6,23.81-23.67,33.91-37.14,1.96-2.61,3.72-5.39,5.39-8.2,1.36-2.29,2.68-2.62,4.65-.69,2.93,2.88,6.16,5.47,8.92,8.5,4.49,4.93,4,11.38-1,16.86-12.62,13.83-27.01,25.69-41.85,36.97-10.86,8.25-22.09,16.01-33.18,23.96-1.2.86-2.43,1.97-3.78,2.24-3.55.71-2.74,2.43-1.53,4.62,7.99,14.39,16.32,28.54,27.26,40.98,4.58,5.21,9.5,9.93,15.76,13.05,3.4,1.69,3.84,3.65.22,5.33-8.46,3.93-16.8,8.09-26.78,6.38-5.43-.93-9.28-3.81-12.77-7.53-10.62-11.32-17.13-25.15-23.59-39.01-1.5-3.22-3.1-6.4-4.94-10.19Z"/>
  </g>
</svg>