<svg width="494" height="398" viewBox="0 0 494 398" fill="none" xmlns="http://www.w3.org/2000/svg">
<path fill-rule="evenodd" clip-rule="evenodd" d="M247.526 260.966C239.955 260.868 232.386 260.771 224.817 260.673C227.621 262.494 230.425 264.315 233.23 266.135C253.036 278.996 272.842 291.856 292.649 304.716C287.93 307.848 283.211 310.98 278.492 314.112C273.774 317.243 269.055 320.376 264.336 323.507C266.007 325.269 267.678 327.031 269.35 328.793C271.021 330.554 272.692 332.316 274.363 334.078L271.261 335.835C269.168 337.02 267.075 338.206 264.983 339.391C262.473 340.813 259.964 342.235 257.454 343.656C254.23 345.482 251.007 347.308 247.784 349.134L241.688 352.587C241.568 352.655 241.437 352.741 241.298 352.831C240.883 353.103 240.408 353.413 240.032 353.379C239.497 353.331 238.657 352.665 237.995 352.141C237.723 351.925 237.481 351.734 237.303 351.618C235.365 350.363 233.431 349.104 231.498 347.841C225.551 343.956 219.627 340.038 213.725 336.086C199.256 326.394 184.819 316.587 170.967 306.032C164.568 301.156 158.627 296.101 153.627 289.757C148.126 282.777 143.583 275.07 139.589 267.153C136.226 260.488 133.249 253.628 130.608 246.649C130.352 245.975 129.992 245.187 129.605 244.343C128.618 242.187 127.465 239.67 127.494 237.776C127.509 236.802 128.099 235.533 128.621 234.41C128.858 233.9 129.081 233.42 129.231 233.011C129.798 231.458 130.365 229.904 130.933 228.35C131.5 226.796 132.068 225.243 132.636 223.689C132.823 223.174 133.07 222.619 133.325 222.047C133.858 220.845 134.426 219.566 134.561 218.416C134.726 217.016 134.313 215.264 133.932 213.648C133.755 212.899 133.584 212.178 133.483 211.536C133.443 211.288 133.416 210.929 133.384 210.52C133.289 209.298 133.16 207.636 132.598 207.219C132.239 206.953 131.168 206.974 130.37 206.991C130.056 206.997 129.785 207.003 129.616 206.99C126.405 206.744 123.194 206.498 119.984 206.252C118.324 206.125 116.665 205.998 115.005 205.871L75.8261 202.871C74.6412 202.78 73.4084 202.74 72.1614 202.699C69.6251 202.617 67.0298 202.533 64.6645 202.016C61.999 201.434 60.3327 199.306 59.5358 196.818C57.144 189.345 54.8826 181.754 53.4262 174.039C52.0177 166.582 53.3779 160.78 56.4492 153.881C59.1377 147.842 62.3128 141.853 65.9233 136.301C66.7992 134.954 66.9342 134.983 68.0673 135.224C68.2815 135.269 68.531 135.322 68.8282 135.375C76.4974 136.735 84.1665 138.097 91.8357 139.458C104.814 141.761 117.793 144.065 130.771 146.368C143.75 148.671 156.729 150.975 169.707 153.278C178.859 154.902 188.012 156.526 197.164 158.15C197.574 158.224 198.106 158.268 198.681 158.318C199.975 158.427 201.484 158.555 202.3 159.062C202.734 159.332 203.089 159.982 203.399 160.551C203.521 160.775 203.636 160.985 203.747 161.155L203.95 161.469C205.577 163.98 207.204 166.49 208.831 169.001C216.117 180.245 223.57 191.381 231.023 202.518C233.299 205.919 235.576 209.32 237.847 212.725C244.148 222.166 250.448 231.608 256.748 241.05C261.244 247.787 265.739 254.523 270.235 261.26C262.664 261.163 255.095 261.064 247.526 260.966ZM309.164 232.485C329.35 232.437 350.164 231.518 369.918 227.2C384.966 223.912 400.077 217.134 412.387 207.821C409.806 217.613 406.199 229.862 398.577 236.957C395.904 239.446 392.405 241.139 389.111 242.732C388.836 242.865 388.561 242.998 388.289 243.131C383.105 245.651 377.789 247.904 372.438 250.046C371.661 250.356 370.881 250.67 370.098 250.985C361.359 254.498 352.243 258.163 343.007 259.847C340.214 260.355 338.791 259.856 336.465 258.187C332.737 255.512 329.35 252.322 326.014 249.18C325.854 249.03 325.695 248.88 325.535 248.73C319.938 243.461 314.493 238.023 309.164 232.485Z" fill="#ED1D22"/>
<path fill-rule="evenodd" clip-rule="evenodd" d="M206.316 1.18398C211.179 3.34208 213.746 9.31314 216.3 13.6311C219.365 18.8129 222.141 24.2396 223.707 30.0744C225.311 36.0531 225.533 42.6084 224.822 48.7428C224.509 51.4417 223.776 53.8981 223 56.4802C222.172 59.2402 223.462 60.8187 225.428 62.7649C229.512 66.8074 234.655 69.9092 237.686 74.8896C240.253 79.1095 243.239 79.8905 248.08 80.0714C260.103 80.5206 271.885 80.1501 283.796 82.4397C286.82 83.0211 289.826 83.7328 292.801 84.5274C293.778 84.7881 294.8 85.2438 295.808 85.3354C297.26 85.4669 297.508 84.892 298.592 84.3359C303.366 81.8901 309.423 84.2396 314.194 85.5815C326.237 88.9692 337.599 93.5808 348.515 99.6911C360.302 106.289 372.867 111.411 384.546 118.206C395.828 124.769 405.963 133.03 416.486 140.692C427.187 148.485 437.337 156.918 447.233 165.699C456.797 174.185 466.686 182.514 475.242 192.036C483.042 200.717 489.204 210.995 493.338 221.916C494.717 225.561 493.868 227.857 489.555 226.654C489.173 230.341 486.412 231.882 482.912 231.094C483.987 234.188 486.442 238.378 485.037 241.707C483.169 246.133 477.819 242.912 475.195 241.187C475.48 244.745 477 250.521 474.049 253.393C469.474 257.842 461.754 252.172 458.514 248.847C450.259 240.374 444.979 229.889 437.65 220.748C428.566 209.419 418.333 198.738 408.062 188.482C407.252 187.672 398.11 177.907 396.8 179.234C400.789 185.81 403.976 193.047 409.553 198.51C412.2 194.809 414.118 196.633 414.615 200.349C415.212 204.817 415.877 209.522 415.049 214C413.423 222.813 407.835 231.195 401.963 237.795C395.82 244.698 388.193 249.955 380.012 254.186C375.38 256.581 370.734 258.825 365.752 260.398C363.52 261.103 361.285 261.92 358.993 262.409C356.789 262.879 354.406 262.846 352.367 263.911C370.637 272.595 390.851 276.253 409.165 284.714C413.585 286.756 422.461 292.063 417.976 298.029C414.507 302.645 406.622 302.808 401.447 303.729C405.254 307.307 404.687 310.629 399.682 312.577C397.671 313.359 395.575 313.722 393.431 313.777C391.975 313.815 389.46 313.299 388.284 314.439C392.821 316.509 399.008 316.383 402.737 320.02C406.542 323.73 401.997 326.715 398.597 328.146C394.124 330.028 387.974 332.012 383.424 329.743C379.828 327.95 376.507 328.339 372.531 327.867C368.43 327.381 364.377 326.507 360.421 325.332C345.359 320.858 331.49 312.578 318.189 304.433C304.901 296.295 292.508 287.05 281.047 276.501C278.22 273.898 275.865 270.801 272.976 268.281C269.934 265.629 266.75 265.391 262.86 265.435C254.015 265.535 245.187 263.968 236.347 265.001C249.053 274.535 262.48 282.933 275.846 291.496C280.931 294.754 286.278 299.099 292.257 300.52C294.88 301.144 300.508 301.557 301.38 304.777C302.017 307.126 299.998 307.521 298.789 308.796C297.038 310.642 299.503 311.259 301.31 312.025C303.588 312.988 305.667 313.299 308.148 313.044C311.945 312.653 314.925 312.783 318.463 314.403C324.024 316.947 329.993 318.316 335.568 320.804C337.877 321.835 338.484 324.906 339.598 326.992C341.35 330.269 343.374 333.389 345.361 336.528C349.106 342.445 352.337 348.531 357.651 353.252C362.308 357.388 367.493 361.052 372.551 364.689C380.45 370.37 390.499 377.395 387.96 388.539C385.45 399.556 373.981 398.371 365.242 396.404C361.564 395.576 356.537 393.26 352.829 394.348C349.629 395.288 347.425 395.428 344.105 394.678C340.256 393.808 336.383 393.242 332.483 392.641C324.309 391.383 316.066 389.307 308.255 386.586C304.508 385.28 301.379 383.538 298.428 380.871C297.551 380.079 296.914 378.956 295.748 378.965C294.757 378.973 293.224 380.725 292.458 381.332C290.037 383.251 287.359 384.854 284.597 382.571C282.833 381.114 281.263 377.943 283.814 376.442C285.769 375.291 289.34 376.61 290.742 374.433C292.21 372.155 288.928 368.849 287.901 366.997C284.8 369.093 280.235 373.332 276.638 369.824C273.757 367.014 276.963 365.308 279.62 364.409C282.905 363.297 286.706 363.44 285.032 359.067C284.081 356.584 282.559 354.358 282.314 351.647C282.128 349.587 282.725 347.604 282.74 345.559C282.766 341.906 278.82 338.759 275.382 337.893C273.283 337.364 272.659 339.15 271.37 340.519C269.475 342.53 267.055 344.036 264.642 345.349C260.683 347.501 256.527 349.21 252.378 350.947C249.629 352.098 244.769 353.606 246.732 357.095C249.605 362.201 242.872 359.757 240.445 358.599C234.797 355.903 229.095 353.33 223.518 350.487C212.082 344.655 201.559 337.454 191.457 329.572C181.541 321.834 171.859 313.614 162.849 304.839C158.485 300.587 154.313 296.116 150.597 291.287C146.605 286.101 143.244 280.477 139.177 275.342C134.957 270.013 130.787 264.843 128.068 258.556C125.549 252.732 122.69 246.23 122.645 239.831C122.595 232.761 122.623 226.411 124.971 219.629C125.951 216.8 127.128 213.853 128.835 211.379C129.326 210.668 131.903 208.236 131.375 207.267C131.404 207.322 125.521 208.216 124.906 208.275C121.001 208.646 117.072 207.98 113.181 207.618C101.677 206.549 90.0638 206.95 78.602 205.377C74.2808 204.784 69.5921 205.407 65.3741 204.314C63.3817 203.799 62.8909 202.662 61.4269 201.733C60.7586 201.308 60.0437 201.449 59.422 200.859C58.6942 200.168 58.5367 199.172 58.2146 198.271C56.494 193.461 53.595 189.167 51.8915 184.348C49.9763 178.928 50.063 173.311 50.2022 167.645C47.3574 167.871 44.3692 167.89 41.7002 166.743C39.5461 173.483 30.2684 173.361 24.5652 172.85C17.4428 172.212 9.09184 171.544 5.482 164.427C1.23978 156.063 1.51995 145.909 1.00679 136.781C0.403968 126.061 0.232323 115.181 0.761413 104.454C1.21146 95.3308 3.29951 85.8604 9.22456 78.6197C14.4523 72.2312 23.4964 68.4922 30.6105 74.4539C35.9575 78.9357 38.2921 87.0073 38.6418 93.7294C38.82 97.1501 38.6595 100.223 42.8893 99.2741C44.5155 98.9094 45.9936 98.3199 47.1928 99.9806C48.2504 101.443 47.7649 103.558 46.426 104.652C45.2127 105.645 42.8521 105.477 42.021 106.952C41.1976 108.415 42.5 110.758 44.0607 111.055C45.8379 111.394 47.2064 109.121 48.996 110.176C50.6357 111.143 49.7793 112.95 48.6804 114.008C47.3804 115.261 46.1281 115.522 47.0577 117.506C47.7703 119.027 49.1965 120.04 49.8365 121.653C51.4161 125.633 51.9375 131.352 50.181 135.354C53.2293 135.692 60.5994 139.282 62.9971 136.378C63.8671 135.324 63.9709 133.777 64.9111 132.702C66.0171 131.437 67.563 130.899 69.1999 130.696C72.6994 130.26 76.2798 131.32 79.679 132.003C85.3144 133.136 90.984 134.129 96.6441 135.13C108.033 137.145 119.528 138.547 130.889 140.712C142.226 142.872 153.446 145.604 164.658 148.324C170.537 149.751 176.39 151.354 182.313 152.59C187.849 153.744 193.617 154.594 198.77 157.036C197.751 150.763 194.909 144.998 193.137 138.935C191.314 132.697 190.802 126.472 191.831 120.049C192.774 114.164 194.171 108.445 197.187 103.244C198.406 101.142 199.748 99.0469 201.504 97.3509C202.753 96.1447 204.511 95.1417 205.499 93.7036C206.472 92.2842 206.265 91.9548 204.512 91.3012C203.537 90.9371 202.651 90.8273 201.727 90.3176C200.877 89.8489 200.146 88.998 199.147 88.8359C196.841 88.4613 193.472 90.6858 191.36 91.4773C188.478 92.5573 185.499 93.5297 182.423 93.8586C172.325 94.938 160.35 89.1067 153.428 82.0422C151.117 79.6844 145.815 74.263 147.97 70.6673C149.107 68.7694 151.14 69.2204 152.847 68.3583C155.521 67.0082 153.827 64.7685 152.546 62.9909C149.058 58.1486 146.718 52.6068 144.221 47.2189C141.679 41.7352 138.194 36.8329 135.337 31.5249C133.286 27.7161 130.909 23.4556 129.966 19.2169C128.815 14.0404 132.334 13.3087 136.636 12.567C150.244 10.2204 163.642 7.06753 177.128 4.13192C182.504 2.96214 187.905 1.77298 193.316 0.775259C197.533 -0.00224601 202.266 -0.611801 206.316 1.18398ZM325.754 324.116C318.737 324.476 311.676 326.027 311.452 334.179C312.303 349.648 322.407 361.211 333.082 371.471C335.776 374.06 338.412 376.804 341.337 379.137C343.058 380.51 344.934 381.137 346.796 382.225C347.253 382.492 348.041 383.385 348.466 383.52C349.472 383.845 349.559 383.48 350.541 383.377C352.681 383.153 353.076 384.637 354.703 385.852C357.789 388.155 363.329 387.818 366.954 388.539C370.301 389.204 383.626 394.01 383.026 387.088C382.441 380.326 375.196 377.04 370.091 374.02C362.976 369.811 355.641 365.254 349.65 359.518C343.954 354.063 340.236 346.599 336.411 339.806C334.027 335.572 333.367 331.982 332.678 327.252C332.387 325.25 332.358 324.596 330.391 324.258C328.87 323.997 327.288 324.038 325.754 324.116ZM301.339 322.992C297.285 324.3 294.224 327.537 292.206 331.198C291.173 333.072 290.581 334.962 290.239 337.057C289.804 339.723 288.804 342.572 289.553 345.252C290.91 350.118 294.474 355.43 297.272 359.605C300.419 364.3 304.506 369.57 309.472 372.448C314.251 375.219 320.023 375.957 324.456 379.376C324.059 377.496 322.288 376.108 320.897 374.935C318.871 373.225 317.098 371.528 315.376 369.493C311.568 364.992 308.403 360.118 306.375 354.566C304.41 349.186 303.284 343.13 303.535 337.394C303.654 334.665 304.125 331.765 305.309 329.275C306.099 327.611 307.501 326.196 308.107 324.446C309.493 320.434 303.361 322.34 301.339 322.992ZM212.443 190.013C206.783 190.653 201.172 191.735 195.471 192.259C183.946 193.319 171.984 193.945 161.54 199.426C146.344 207.402 128.843 225.101 134.113 243.745C140.339 265.768 153.649 285.683 170.313 301.267C180.952 311.216 192.603 320.182 204.29 328.867C215.594 337.269 228.672 342.779 240.327 350.634C241.116 339.06 248.421 328.446 257.059 321.083C261.7 317.126 266.572 313.336 271.776 310.141C274.333 308.57 276.982 307.244 279.678 305.933C281.725 304.938 283.986 303.457 286.326 303.346C286.288 301.639 281.988 301.009 280.802 300.607C276.709 299.222 272.78 297.099 268.989 295.043C260.734 290.566 253.107 285.102 245.468 279.674C241.735 277.02 237.942 274.447 234.248 271.737C230.922 269.298 227.973 266.124 224.4 264.047C220.723 261.911 216.377 261.464 212.275 260.677C207.348 259.73 202.499 258.606 197.548 257.776C189.28 256.389 181.476 251.542 173.854 248.239C171.292 247.128 167.382 246.164 165.426 244.06C163.653 242.155 164.116 239.212 166.388 237.906C170.296 235.661 176.809 238.589 180.503 240.038C187.339 242.719 194.126 245.119 201.38 246.492C211.315 248.374 220.757 251.895 230.706 253.739C241.434 255.726 252.188 257.901 263.096 258.634C260.423 253.361 255.992 248.98 252.541 244.211C248.581 238.739 244.628 233.265 240.702 227.769C233.784 218.08 226.069 208.344 220.81 197.634C219.007 193.963 217.233 189.471 212.443 190.013ZM263.82 331.189C262.245 331.439 261.056 333.007 259.985 334.044C256.671 337.251 253.427 340.427 250.728 344.188C254.904 342.432 258.309 339.372 262.334 337.36C263.785 336.635 268.907 335.019 267.875 332.999C267.294 331.864 264.979 331.004 263.82 331.189ZM282.982 318.27C278.893 321.047 274.638 323.531 270.327 325.946C273.35 327.09 276.37 328.668 278.851 330.742C279.986 331.69 282.319 334.466 283.96 333.768C285.485 333.12 286.314 329.363 287.052 328.007C288.943 324.535 291.588 321.256 294.431 318.518C290.159 315.671 287.296 315.339 282.982 318.27ZM248.475 167.064C245.203 167.971 241.956 168.961 238.687 169.875C232.159 171.7 225.488 173.225 218.671 173.225C217.743 174.924 220.4 177.696 221.217 178.992C223.36 182.395 225.189 186.045 227.132 189.567C231.251 197.035 235.745 204.213 240.593 211.23C245.491 218.321 249.916 225.747 254.932 232.751C259.787 239.532 265.127 246.118 270.386 252.592C290.876 277.814 319.434 295.208 347.502 310.834C355.369 315.214 363.566 319.073 372.278 321.464C375.876 322.452 379.545 323.288 383.204 324.024C385.663 324.518 389.755 325.625 392.02 324.041C384.91 321.237 375.594 320.155 369.852 314.728C366.297 311.369 370.195 308.862 373.82 308.238C380.834 307.03 388.103 310.072 394.988 308.098C393.147 304.737 387.858 304.897 384.641 304.035C380.573 302.943 380.422 300.896 384.295 299.505C389.062 297.792 394.558 298.721 399.526 298.405C401.951 298.251 412.114 297.848 409.044 293.211C406.628 289.562 400.747 288.539 396.898 287.193C391.497 285.305 386.251 282.358 380.751 280.896C375.371 279.464 369.889 278.585 364.509 277.074C358.895 275.498 353.366 273.745 348.03 271.379C337.743 266.818 328.206 260.625 319.519 253.516C310.568 246.189 302.72 237.793 295.5 228.79C291.701 224.053 288.086 219.179 284.39 214.364C280.821 209.714 276.784 205.282 273.926 200.149C270.767 194.472 266.671 189.289 263.399 183.632C261.626 180.566 259.718 177.558 258.064 174.427C256.889 172.2 256.089 168.935 254.5 167C253.006 165.181 250.394 166.532 248.475 167.064ZM97.3431 239.01C98.4396 240.008 98.2573 240.419 98.0462 241.686C97.6138 244.283 97.1367 246.832 96.9361 249.467C96.2483 258.478 97.5248 267.824 98.9351 276.725C100.343 285.606 103.728 293.811 108.944 301.156C113.997 308.273 120.097 313.942 128.134 317.435C129.514 318.034 134.977 320.234 134.624 322.264C134.359 323.79 131.522 322.927 130.502 322.709C116.056 319.627 103.814 306.621 96.5132 294.515C93.4908 289.503 91.5467 284.408 89.8774 278.868C89.6332 278.059 86.1349 266.598 87.3163 266.454C86.2965 258.518 85.9915 248.868 89.7589 241.522C91.1663 238.779 94.4641 236.393 97.3431 239.01ZM72.1397 240.717C70.8214 246.7 71.2572 252.804 71.548 258.865C71.6011 259.968 72.2346 263.371 70.4008 263.306C69.1049 263.26 68.0721 259.966 67.7542 259.121C65.8283 253.993 65.1441 248.217 66.1061 242.813C66.4099 241.101 66.8688 239.025 68.7587 238.431C70.4026 237.914 72.2853 238.837 72.1397 240.717ZM409.719 213.096C408.907 213.486 408.549 214.23 408.306 215.046C401.951 220.439 394.475 225.659 387.044 229.465C380.406 232.864 372.719 234.297 365.474 235.834C348.905 239.351 332.406 240.771 315.881 236.22C322.634 242.424 328.758 250.667 337.271 254.619C341.501 256.583 346.182 255.398 350.447 254.154C355.679 252.628 360.944 251.069 366.008 249.045C375.575 245.223 385.809 240.992 393.855 234.439C397.421 231.534 400.329 227.943 402.888 224.149C404.354 221.975 405.594 219.651 407.078 217.494C407.932 216.25 409.805 214.718 409.719 213.096ZM339.119 102.776C338.876 105.844 337.061 108.422 335.46 110.941C334.371 112.654 332.251 114.72 333.256 116.663C334.45 118.969 338.257 120.442 340.229 122.02C343.149 124.355 345.884 126.907 348.573 129.499C353.398 134.152 358.394 138.662 363.116 143.414C367.603 147.929 371.957 152.529 377.616 155.607C390.04 162.365 400.979 171.809 411.835 180.788C422.904 189.943 433.837 199.566 443.442 210.26C448.582 215.983 452.854 222.264 456.518 229.007C458.402 232.476 460.421 235.868 462.309 239.336C463.144 240.87 464.087 242.36 464.847 243.934C465.412 245.103 465.779 246.996 466.822 247.862C468.886 243.302 465.666 237.271 463.799 233.163C462.523 230.355 461.271 227.537 460.012 224.721C459.127 222.746 457.291 220.362 457.19 218.158C456.944 212.799 463.875 216.655 465.775 218.372C470.48 222.624 473.193 229.015 476.523 234.29C477.306 230.091 468.909 223.606 472.385 219.945C475.143 217.043 480.226 223.843 481.769 225.684C482.827 220.492 480.115 215.412 477.28 211.257C474.122 206.624 470.471 202.22 466.729 198.048C457.984 188.298 447.989 179.62 438.101 171.048C428.264 162.52 418.137 154.339 408.053 146.105C398.26 138.11 388.32 130.115 377.374 123.714C371.236 120.125 364.799 117.123 358.534 113.772C351.972 110.264 345.752 106.155 339.119 102.776ZM253.573 90.9482C253.287 91.0193 251.632 91.2172 251.508 91.3623C250.968 91.9953 251.688 94.0424 252.324 94.41C250.128 96.0443 247.661 97.5318 244.87 97.7861C246.626 99.5014 249.962 102.502 249.443 105.269C248.729 109.075 244.136 106.406 242.275 105.254C239.29 103.405 236.24 101.443 234.054 98.6552C232.666 96.8858 232.193 95.0096 231.154 93.104C230.591 92.0687 230.919 91.8814 229.669 91.8097C228.242 91.7293 225.8 93.077 224.477 93.6126C222.434 94.4406 220.441 95.396 218.519 96.4753C214.974 98.4678 211.656 100.886 208.749 103.726C202.729 109.605 198.652 117.33 198.135 125.788C202.407 125.284 206.587 123.45 210.187 121.162C212.751 119.533 215.366 117.618 215.819 122.215C215.994 124.006 215.491 128.175 214.412 129.56C213.404 130.854 212.968 129.805 211.922 130.581C210.712 131.48 211.351 132.773 211.351 134.034C210.768 133.547 210.185 133.06 209.603 132.572C208.548 133.944 209.741 133.21 210.14 134.039C210.372 134.523 208.783 135.916 208.466 136.163C207.809 136.674 207.446 136.251 206.695 136.985C206.213 137.457 205.693 138.516 205.169 139.106C202.465 142.153 206.046 146.927 207.462 150.157C208.51 152.55 209.654 154.895 210.745 157.266C211.543 159.002 211.975 161.063 213.035 162.663C215.14 165.838 219.962 164.103 223.11 163.714C227.38 163.186 231.573 162.646 235.848 162.246C238.354 162.012 241.185 160.56 237.967 158.682C234.774 156.818 223.742 156.465 223.671 151.67C223.595 146.573 230.709 145.725 234.276 146.163C239.494 146.804 242.866 148.115 246.436 152.036C245.636 144.559 240.308 138.374 239.119 130.872C238.795 128.835 237.803 116.275 242.721 121.701C245.356 124.607 247.442 129.005 249.389 132.366C252.336 137.454 254.904 142.741 257.61 147.956C260.191 152.934 263.972 157.716 265.78 163.011C266.798 165.99 268.217 172.25 271.446 173.77C273.515 174.744 277.007 173.469 279.144 173.158C280.464 172.966 281.751 172.778 282.884 172.02C283.47 171.627 284.049 170.608 284.79 170.495C286.922 170.166 287.473 173.41 287.328 174.904C287.104 177.207 286.041 177.804 283.884 178.072C287.521 179.846 281.917 185.395 280.934 187.608C280.882 187.495 280.244 185.94 279.77 185.941C278.827 185.944 282.658 193.452 282.947 193.974C284.956 197.598 287.479 200.856 289.919 204.196C291.322 206.116 293.34 210.657 296.193 210.228C297.773 209.991 301.056 206.751 302.298 208.972C303.418 210.975 299.958 213.124 299.437 214.717C298.564 217.388 301.85 220.197 303.787 221.597C308.919 225.309 315.575 226.185 321.649 227.306C320.488 225.748 317.96 224.899 317.91 222.668C317.876 221.152 318.953 220.324 318.225 218.673C317.626 217.313 316.123 216.524 315.676 215.067C315.183 213.46 315.96 211.635 316.848 210.308C320.607 204.681 329.004 207.023 333.928 209.579C333.564 209.738 333.262 209.968 333.023 210.269L332.965 210.346L332.978 210.337C333.61 209.952 336.349 211.159 336.69 211.404C337.769 212.178 339.224 213.982 339.969 215.099C342.368 218.698 342.711 223.083 341.465 227.161C356.481 227.161 370.627 223.177 384.064 216.826C387.133 215.376 390.148 214.448 393.055 212.623C396.042 210.749 398.88 208.668 401.813 206.717C404.569 204.884 404.32 203.784 402.474 201.178C400.227 198.007 398.247 194.627 395.753 191.636C395.37 192.464 395.22 194.122 394.401 194.631C393.497 195.194 392.666 194.076 392.056 194.499C392.11 194.462 390.183 197.443 389.873 196.701C390.676 198.622 387.46 197.394 386.89 197.038C387.023 198.839 385.52 200.389 384.676 197.982C382.383 200.071 376.947 198.159 379.879 194.938C381.326 193.348 382.902 192.503 383.812 190.427C384.831 188.104 385.186 185.474 385.314 182.962C385.616 177.041 382.398 174.276 378.364 170.437C376.111 168.293 373.759 166.258 371.441 164.185C369.404 162.364 367.641 160.107 365.504 158.419C363.968 157.206 362.743 156.857 361.253 157.91C360.639 158.344 360.439 158.895 359.651 159.313C358.64 159.85 357.14 160.181 356.013 160.321C350.343 161.024 343.781 159.089 338.586 157.004C337.163 156.434 336.482 155.505 335.25 154.798C334.472 154.351 333.808 154.622 332.982 154.088C330.822 152.694 330.93 150.455 332.5 148.712C336.179 144.628 341.464 148.302 345.223 145.004C349.908 140.894 342.098 135.212 338.943 132.697C336.417 130.683 334.248 130.247 331.162 129.719C330.515 129.608 326.228 128.376 327.728 130.147C324.398 130.061 322.76 130.075 320.078 132.145C319.374 132.687 318.439 133.201 318.245 134.127C318.143 134.615 319.154 134.713 319.157 134.709C319.021 135.037 318.003 135.633 317.856 135.738C319.571 135.94 319.126 139.293 318.684 139.312L318.658 139.308L318.708 139.351C319.457 140.057 317.767 141.145 317.194 141.328C315.566 141.846 314.022 140.719 312.934 139.593C310.498 137.074 308.729 132.787 308.885 129.294C309.104 124.392 312.338 121.549 315.005 117.874C317.002 115.125 314.035 113.663 311.971 111.937C309.444 109.827 306.007 107.233 305.176 103.872C304.42 100.81 306.518 99.7621 309.206 100.683C312.84 101.927 315.78 105.128 319 107.131C321.858 108.908 325.465 112.538 328.957 112.745C328.316 110.476 325.144 110.716 323.916 109.031C322.295 106.803 324.813 105.81 326.719 106.066C328.197 106.263 332.416 109.381 332.307 105.787C332.248 103.861 329.022 103.216 327.618 102.66C320.481 99.8314 313.171 97.9023 305.603 96.5922C303.15 96.1682 302.522 96.4654 301.336 98.6704C300.934 99.4192 299.488 102.864 298.695 100.58C297.658 102.452 297.356 104.446 295.102 105.199C292.233 106.156 288.545 104.739 285.901 103.64C283.633 102.697 281.477 101.375 280.021 99.3581C279.297 98.3557 278.769 97.2429 278.427 96.0566C278.137 95.0495 278.274 93.3988 277.749 92.4839C276.872 90.9541 274.781 91.2841 273.167 91.1315C269.563 90.7903 266.004 90.482 262.381 90.4397C259.371 90.405 256.498 90.223 253.573 90.9482ZM331.927 225.362C330.775 225.773 332.822 227.146 333.499 226.984C333.222 226.539 332.762 225.064 331.927 225.362ZM332.965 210.346L332.934 210.37C332.894 210.406 332.867 210.451 332.855 210.508C332.881 210.466 332.908 210.426 332.936 210.386L332.965 210.346ZM356.02 174.27C357.064 175.143 356.643 177.164 357.357 178.405C359.269 181.729 362.714 185.008 365.96 187.015C369.457 189.177 371.111 191.982 371.968 195.898C372.145 196.707 372.68 197.831 372.419 198.669C372.175 199.451 371.292 199.711 371.021 200.409C370.896 200.728 371.416 203.196 371.353 203.204C371.052 203.24 370.172 201.998 370.177 202.005C369.829 202.866 369.949 203.844 369.01 204.305L368.895 204.355L368.91 204.367C369.144 204.547 370.213 205.43 369.958 205.624C369.603 205.895 368.733 205.71 368.29 205.867C367.589 206.116 367.085 206.737 366.411 207.026C364.604 207.8 362.521 207.561 360.614 207.288C356.597 206.714 352.077 205.283 349.173 202.321C345.656 198.732 346.491 195.014 346.173 190.988C345.817 186.472 349.089 179.627 351.717 176.126C352.614 174.93 354.411 172.927 356.02 174.27ZM67.0829 139.135C66.8558 139.669 67.0823 140.503 66.949 141.09C66.6801 142.278 65.9876 143.319 65.3211 144.317C64.0735 146.184 62.8184 147.895 61.9672 150.002C59.8774 155.174 57.9392 160.748 56.9382 166.232C54.7912 178.005 61.9595 187.715 62.35 199.181C65.6419 195.731 70.6479 195.566 75.1083 195.556C81.0439 195.543 86.9247 195.791 92.8379 196.308C104.15 197.299 115.714 197.7 126.435 201.817C127.615 202.27 128.5 202.466 129.685 202.713C130.987 202.985 130.298 202.379 131.25 203.146C131.506 203.352 131.608 204.098 131.875 204.359C133.26 205.708 134.09 204.791 135.263 203.344C138.491 199.361 141.711 195.741 145.864 192.646C154.71 186.051 164.618 183.005 175.522 182.024C181.772 181.462 187.875 181.138 194.152 181.199C200.145 181.256 206.473 181.366 212.151 183.501C210.739 179.477 208.327 175.871 206.382 172.097C205.438 170.264 204.562 168.337 203.361 166.65C202.306 165.168 200.713 163.956 199.982 162.263C199.851 162.603 199.721 162.943 199.59 163.283C188.06 159.995 176.171 158.224 164.35 156.343C152.476 154.454 140.749 151.836 128.9 149.823C122.951 148.811 116.98 148.204 110.988 147.526C105.22 146.874 99.6588 145.599 93.9715 144.516C88.2117 143.418 82.6058 142.089 76.9422 140.577C74.5675 139.943 72.3196 139.069 70.0085 138.306C68.1653 137.698 67.7465 137.568 67.0829 139.135ZM322.047 160.008C322.392 161.415 321.291 163.231 320.938 164.568C320.538 166.083 319.671 166.69 319.218 168.069C318.825 169.266 319.534 175.614 316.459 173.718C316.553 174.174 317.059 174.799 317.111 175.205C317.177 175.711 316.683 176.485 316.826 176.921C316.956 177.314 318.306 178.465 318.634 179.12C319.925 181.697 320.837 184.663 321.474 187.47C322.137 190.397 322.942 194.451 320.508 196.471C319.923 196.956 319.413 197.087 318.813 197.67C318.743 198.209 318.496 198.654 318.072 199.006C317.839 199.071 317.652 199.014 317.512 198.834C316.77 199.234 317.017 197.552 316.146 199.186C315.935 199.581 316.315 200.935 316.127 200.796C315.785 200.545 314.753 199.473 314.419 199.453C313.67 200.467 313.687 199.434 312.897 199.579C312.866 199.999 312.637 200.231 312.21 200.272C311.876 200.197 311.544 200.12 311.211 200.043C309.198 200.055 306.224 199.214 304.292 198.683C300.602 197.668 297.97 195.141 297.169 191.312C295.502 183.335 302.241 173.363 307.059 167.562C308.705 165.581 320.263 152.72 322.047 160.008ZM354.222 185.706C354.171 186.376 354.379 187.378 353.623 187.452C353.657 186.696 353.338 185.728 354.222 185.706ZM301.726 184.571C302.07 186.502 302.149 185.399 301.369 186.728C301.106 185.945 301.226 185.227 301.726 184.571ZM357.59 182.08C357.89 182.451 359.037 183.453 358.049 183.71C357.185 183.934 357.554 182.538 357.59 182.08ZM316.025 168.691C315.632 170.769 316.816 170.272 318.444 169.894C317.638 169.493 316.831 169.092 316.025 168.691ZM14.1716 84.8509C6.3703 91.5155 6.13495 103.169 6.38092 112.55C6.71536 125.296 7.49218 138.077 8.72967 150.767C9.28885 156.501 10.9316 159.42 16.6165 161.342C22.775 163.423 29.4084 163.02 35.7964 162.651C34.5749 153.196 32.1842 140.756 41.7108 134.463C42.5826 133.888 43.3801 133.463 44.4412 133.408C45.1419 133.372 46.147 134.005 46.8123 133.681C48.1578 133.026 47.388 131.172 46.9474 130.122C45.6079 126.933 43.0515 124.38 40.9776 121.673C38.3729 118.275 36.135 118.367 32.2456 118.786C30.6949 118.954 24.5947 119.646 25.7956 116.35C26.668 113.953 31.4605 114.554 33.4022 113.999C34.8739 113.578 35.1741 113.392 35.111 111.894C35.0113 109.554 33.6636 108.919 31.5726 108.983C28.8829 109.065 24.2261 110.488 21.9864 108.382C18.7883 105.374 23.5312 103.269 25.936 102.86C28.4535 102.432 31.8203 102.822 32.4013 99.7193C32.9546 96.7601 31.3868 93.1792 30.1617 90.5736C28.9761 88.0532 27.3558 84.841 24.882 83.3276C21.3913 81.193 17.0848 82.3616 14.1716 84.8509ZM44.4506 140.532C41.282 141.239 39.4588 145.347 39.0907 148.219C38.735 150.998 38.9775 154.963 41.0236 157.098C43.7092 159.9 48.3908 159.711 51.281 162.341C52.5616 156.013 54.9292 149.923 58.0394 144.268C55.5833 143.595 53.1897 142.724 50.7678 141.942C48.996 141.371 46.3534 140.107 44.4506 140.532ZM247.848 154.165C248.558 154.769 248.783 154.953 248.967 155.903C247.28 156.009 247.787 155.469 247.848 154.165ZM264.579 109.153C267.216 109.221 268.449 110.071 270.564 111.328C272.072 112.225 273.901 111.26 273.901 113.538C278.205 110.17 286.232 118.866 289.249 121.144C292.432 123.547 295.565 126.375 295.918 130.662C296.022 131.932 295.758 133.233 295.949 134.497C296.094 135.45 296.7 136.402 296.596 137.389C296.475 138.535 295.502 139.204 295.278 140.28C295.19 140.707 295.493 141.563 295.305 141.908C293.375 145.429 290.903 148.319 286.669 148.667C282.982 148.97 278.909 147.66 276.221 145.099C273.837 142.827 272.416 139.422 271.798 136.238C271.691 135.687 271.894 134.425 271.712 133.959C271.447 133.281 271.049 133.269 270.72 132.72C269.849 131.263 268.598 128.519 269.729 126.918C266.941 127.545 264.823 121.599 263.782 119.865C263.002 118.566 261.122 117.55 260.599 116.286C259.883 114.554 262.456 113.811 261.565 112.604C261.088 111.958 258.527 112.398 258.778 110.779C259.012 109.282 263.572 109.126 264.579 109.153ZM318.581 139.251C318.606 139.283 318.631 139.302 318.658 139.309V139.308L318.649 139.3L318.581 139.251ZM311.221 126.285C311.463 126.078 312.758 124.773 312.91 125.752C313.035 126.554 311.609 126.285 311.221 126.285ZM190.346 24.5937C187.535 24.7646 185.029 27.7859 182.935 29.3721C179.809 31.7398 176.114 33.478 172.429 34.7923C168.14 36.3209 163.731 37.6815 159.327 38.8413C154.86 40.0181 150.207 40.2589 145.755 41.4815C147.958 45.4959 150.161 49.5109 152.365 53.5258C153.331 52.2016 153.001 50.7065 154.591 49.7546C155.695 49.0939 157.292 49.0035 158.539 48.7592C162.012 48.0786 165.823 47.4761 169.349 48.1802C171.623 48.6347 174.154 50.3782 172 52.8129C170.641 54.3491 167.714 53.9545 167.476 56.3945C167.247 58.7323 169.644 60.7406 169.089 63.1988C168.309 66.6541 164.841 65.6194 163.299 63.3856C161.924 61.3937 162.446 57.8514 160.323 56.415C159.057 55.5583 155.672 55.2494 154.308 55.9828C156.814 60.588 161.685 66.266 158.828 71.7713C157.95 73.4626 156.031 74.1074 157.317 75.7693C158.8 77.686 163.079 79.2651 165.357 78.6785C167.49 78.1294 169.933 75.737 172.332 76.9209C174.597 78.0384 172.992 79.9357 173.192 81.691C173.795 86.9779 184.686 83.9624 187.643 83.2607C190.609 82.5572 193.704 80.8548 196.766 80.7849C199.654 80.7185 202.335 82.1044 204.623 83.7275C206.337 84.9431 209.188 88.4995 211.362 88.6181C213.543 88.7373 216.634 85.5227 218.559 84.5497C222.012 82.8032 225.786 82.2982 229.446 81.1343C230.027 80.9499 232.565 80.4302 232.611 79.5863C232.654 78.7754 229.654 77.0013 229.144 76.6137C224.489 73.0744 221.079 68.1951 216.236 64.8807C214.076 63.4026 211.743 62.3608 209.221 61.6955C207.82 61.3267 204.007 60.8293 203.907 58.8415C210.625 57.7211 210.792 49.377 207.959 44.6456C206.157 41.6366 203.362 40.2055 199.831 40.8526C194.715 41.791 193.78 45.5194 192.608 49.9437C188.427 47.6793 183.87 42.134 183.621 37.2475C183.346 31.815 189.205 29.4789 190.346 24.5937ZM315.154 61.1036C322.203 62.4055 329.097 64.1408 335.885 66.4468C340.066 67.8674 346.149 69.0888 349.765 71.7537C350.82 72.5324 352.15 74.2448 351.186 75.6131C350.357 76.7928 348.325 76.4751 347.124 76.2913C341.666 75.4557 336.32 73.1819 330.921 71.9557C316.572 68.6977 301.851 67.1668 287.191 66.1239C283.149 65.8367 279.103 65.5883 275.06 65.3053C271.693 65.0704 267.993 65.1766 264.697 64.4179C262.096 63.8195 261.449 61.9175 263.396 59.7758C265.294 57.6888 268.478 58.0141 271.021 57.633C285.816 56.6711 300.623 58.4193 315.154 61.1036ZM290.633 44.0566C295.429 45.702 289.823 46.4866 287.725 46.3139C287.014 46.2558 277.632 45.3291 277.632 45.6163C275.759 45.6163 270.805 47.0421 269.46 45.1571C268.016 43.1329 274.199 42.4223 275.449 42.3324C280.255 41.9877 286.013 42.4728 290.633 44.0566Z" fill="#242424"/>
</svg>
